<?xml version="1.0" encoding="UTF-8"?>
<!DOCTYPE svg PUBLIC "-//W3C//DTD SVG 1.1//EN" "http://www.w3.org/Graphics/SVG/1.1/DTD/svg11.dtd">
<!-- Creator: CorelDRAW 2019 (64-Bit) -->
<svg xmlns="http://www.w3.org/2000/svg" xml:space="preserve" width="158.75mm" height="79.375mm" version="1.1" style="shape-rendering:geometricPrecision; text-rendering:geometricPrecision; image-rendering:optimizeQuality; fill-rule:evenodd; clip-rule:evenodd"
viewBox="0 0 15875 7937.5"
 xmlns:xlink="http://www.w3.org/1999/xlink"
 xmlns:xodm="http://www.corel.com/coreldraw/odm/2003">
 <defs>
  <style type="text/css">
   <![CDATA[
    .fil0 {fill:#827D7D;fill-rule:nonzero}
   ]]>
  </style>
 </defs>
 <g id="Layer_x0020_1">
  <metadata id="CorelCorpID_0Corel-Layer"/>
  <path class="fil0" d="M1933.62 4475.32c162.77,0 312.29,-52.19 448.54,-156.58 21.23,-15.92 38.92,-23.9 53.06,-23.9 8.85,0 16.81,2.67 23.9,7.98 7.07,5.29 15.03,13.25 23.88,23.88l151.29 217.63c10.61,15.92 15.92,30.96 15.92,45.12 0,15.92 -13.27,36.26 -39.81,61.03 -95.55,79.63 -202.59,141.12 -321.14,184.47 -118.55,43.35 -243.29,65.01 -374.22,65.01 -185.78,0 -353.86,-41.13 -504.27,-123.41 -150.38,-82.27 -268.48,-195.95 -354.31,-341.04 -85.81,-145.09 -128.72,-307.86 -128.72,-488.34 0,-185.78 43.35,-352.54 130.05,-500.28 86.69,-147.74 206.57,-263.63 359.62,-347.68 153.05,-84.05 326.01,-126.06 518.86,-126.06 130.93,0 254.35,22.12 370.23,66.34 115.91,44.24 220.73,105.28 314.52,183.13 21.23,17.7 31.84,34.5 31.84,50.44 0,14.14 -6.19,30.07 -18.57,47.77l-153.94 217.61c-15.92,23.01 -32.74,34.52 -50.42,34.52 -15.94,0 -33.63,-7.09 -53.09,-21.24 -143.31,-102.62 -291.05,-153.93 -443.22,-153.93 -100.85,0 -191.54,22.56 -272.04,67.68 -80.51,45.11 -143.31,108.82 -188.44,191.09 -45.11,82.27 -67.68,176.49 -67.68,282.65 0,102.63 22.57,194.62 67.68,276.02 45.13,81.39 107.93,145.08 188.44,191.09 80.5,46 171.19,69 272.04,69zm1334.97 305.22c-15.92,33.61 -32.73,56.17 -50.43,67.66 -17.69,11.52 -43.34,17.26 -76.97,17.26l-323.79 0c-38.92,0 -58.39,-12.38 -58.39,-37.15 0,-15.93 4.42,-31.85 13.27,-47.77l846.63 -1685.3c24.78,-51.33 46.01,-86.71 63.71,-106.17 17.69,-19.47 37.15,-29.19 58.38,-29.19 21.23,0 40.26,9.72 57.07,29.19 16.81,19.46 38.47,54.84 65.01,106.17l851.95 1685.3c8.84,15.92 13.27,30.95 13.27,45.11 0,26.54 -20.34,39.81 -61.05,39.81l-339.71 0c-33.62,0 -58.83,-5.74 -75.64,-17.26 -16.81,-11.49 -33.18,-34.05 -49.1,-67.66l-469.76 -966.07 -464.45 966.07zm2109.95 15.92c0,24.77 -5.74,42.46 -17.25,53.08 -11.5,10.61 -29.63,15.92 -54.41,15.92l-321.14 0c-22.99,0 -40.25,-5.74 -51.74,-17.26 -11.51,-11.49 -17.26,-28.73 -17.26,-51.74l0 -1714.49c0,-31.86 5.31,-56.62 15.93,-74.32 10.61,-17.69 26.53,-26.54 47.78,-26.54 15.91,0 32.72,6.18 50.42,18.58 17.69,12.39 38.92,32.73 63.69,61.03l764.36 828.07 761.71 -828.07c28.3,-30.08 50.42,-50.86 66.35,-62.37 15.92,-11.49 31.84,-17.24 47.77,-17.24 42.46,0 63.69,33.61 63.69,100.86l0 1714.49c0,23.01 -5.31,40.25 -15.92,51.74 -10.62,11.52 -28.31,17.26 -53.08,17.26l-321.13 0c-47.78,0 -71.67,-23 -71.67,-69l0 -801.52 -379.52 432.61c-24.78,26.54 -44.23,45.11 -58.39,55.73 -14.16,10.63 -28.3,15.92 -42.46,15.92 -14.16,0 -28.32,-5.29 -42.46,-15.92 -14.16,-10.62 -32.74,-29.19 -55.75,-55.73l-379.52 -432.61 0 801.52zm2279.81 0c0,24.77 -5.75,42.46 -17.26,53.08 -11.5,10.61 -29.63,15.92 -54.41,15.92l-321.14 0c-22.99,0 -40.24,-5.74 -51.74,-17.26 -11.51,-11.49 -17.26,-28.73 -17.26,-51.74l0 -1719.8c0,-24.77 5.75,-42.47 17.26,-53.09 11.5,-10.62 28.75,-15.92 51.74,-15.92l321.14 0c24.78,0 42.91,5.3 54.41,15.92 11.51,10.62 17.26,28.32 17.26,53.09l0 1719.8zm1303.12 -321.14c162.77,0 312.29,-52.19 448.53,-156.58 21.23,-15.92 38.93,-23.9 53.07,-23.9 8.85,0 16.81,2.67 23.9,7.98 7.07,5.29 15.03,13.25 23.88,23.88l151.29 217.63c10.6,15.92 15.92,30.96 15.92,45.12 0,15.92 -13.27,36.26 -39.82,61.03 -95.54,79.63 -202.58,141.12 -321.13,184.47 -118.55,43.35 -243.29,65.01 -374.22,65.01 -185.78,0 -353.86,-41.13 -504.27,-123.41 -150.39,-82.27 -268.49,-195.95 -354.31,-341.04 -85.81,-145.09 -128.72,-307.86 -128.72,-488.34 0,-185.78 43.35,-352.54 130.04,-500.28 86.7,-147.74 206.58,-263.63 359.63,-347.68 153.05,-84.05 326.01,-126.06 518.86,-126.06 130.93,0 254.34,22.12 370.23,66.34 115.9,44.24 220.73,105.28 314.52,183.13 21.23,17.7 31.83,34.5 31.83,50.44 0,14.14 -6.18,30.07 -18.56,47.77l-153.94 217.61c-15.92,23.01 -32.74,34.52 -50.42,34.52 -15.94,0 -33.63,-7.09 -53.09,-21.24 -143.31,-102.62 -291.06,-153.93 -443.22,-153.93 -100.86,0 -191.54,22.56 -272.04,67.68 -80.51,45.11 -143.32,108.82 -188.44,191.09 -45.11,82.27 -67.68,176.49 -67.68,282.65 0,102.63 22.57,194.62 67.68,276.02 45.12,81.39 107.93,145.08 188.44,191.09 80.5,46 171.18,69 272.04,69zm1334.96 305.22c-15.92,33.61 -32.72,56.17 -50.42,67.66 -17.69,11.52 -43.35,17.26 -76.97,17.26l-323.79 0c-38.92,0 -58.39,-12.38 -58.39,-37.15 0,-15.93 4.42,-31.85 13.27,-47.77l846.63 -1685.3c24.78,-51.33 46.01,-86.71 63.71,-106.17 17.69,-19.47 37.15,-29.19 58.38,-29.19 21.23,0 40.26,9.72 57.07,29.19 16.8,19.46 38.47,54.84 65.01,106.17l851.95 1685.3c8.84,15.92 13.27,30.95 13.27,45.11 0,26.54 -20.35,39.81 -61.05,39.81l-339.72 0c-33.61,0 -58.83,-5.74 -75.63,-17.26 -16.81,-11.49 -33.18,-34.05 -49.1,-67.66l-469.76 -966.07 -464.46 966.07zm2261.24 -1807.39c244.17,0 460.92,76.08 650.23,228.24 21.23,15.92 31.85,33.61 31.85,53.08 0,17.7 -6.2,35.39 -18.58,53.09l-143.32 228.24c-15.92,24.76 -32.72,37.16 -50.42,37.16 -14.16,0 -30.96,-7.09 -50.43,-21.24 -69.01,-51.31 -138.01,-90.67 -207.01,-118.1 -69,-27.43 -140.66,-41.14 -214.97,-41.14 -70.78,0 -126.51,13.71 -167.21,41.14 -40.69,27.43 -61.04,63.25 -61.04,107.49 0,33.61 10.62,60.59 31.85,80.95 21.23,20.34 53.08,38.47 95.54,54.41 42.47,15.91 104.4,33.61 185.78,53.08 138.01,33.61 251.25,74.75 339.72,123.41 88.47,48.64 154.81,109.25 199.05,181.79 44.24,72.55 66.35,161.01 66.35,265.4 0,123.87 -30.53,230.91 -91.57,321.14 -61.04,90.23 -147.74,159.25 -260.09,207.02 -112.35,47.78 -241.96,71.65 -388.82,71.65 -134.47,0 -258.31,-19.9 -371.55,-59.71 -113.24,-39.82 -214.98,-95.1 -305.22,-165.88 -26.54,-21.23 -39.81,-41.57 -39.81,-61.04 0,-17.69 7.09,-37.15 21.23,-58.39l138.02 -220.28c15.92,-26.55 33.61,-39.82 53.07,-39.82 12.38,0 29.2,7.98 50.43,23.9 63.7,49.53 135.36,88.91 214.97,118.1 79.63,29.19 159.25,43.8 238.86,43.8 84.94,0 149.96,-13.73 195.08,-41.14 45.11,-27.43 67.68,-64.14 67.68,-110.16 0,-31.83 -10.62,-58.38 -31.85,-79.61 -21.23,-21.23 -54.85,-40.25 -100.86,-57.07 -46,-16.8 -113.24,-35.82 -201.7,-57.05 -130.93,-31.86 -238.86,-70.78 -323.8,-116.78 -84.92,-46.01 -149.5,-105.71 -193.73,-179.14 -44.24,-73.43 -66.36,-164.11 -66.36,-272.04 0,-123.86 30.08,-230.47 90.24,-319.81 60.17,-89.36 143.76,-157.48 250.8,-204.36 107.06,-46.89 229.58,-70.33 367.59,-70.33zm2165.67 1467.67c24.77,0 42.92,5.31 54.41,15.92 11.5,10.62 17.26,28.32 17.26,53.09l0 286.63c0,46 -23.89,69 -71.67,69l-1117.34 0c-22.99,0 -40.25,-5.74 -51.75,-17.26 -11.51,-11.49 -17.26,-28.73 -17.26,-51.74l0 -1719.8c0,-24.77 5.75,-42.47 17.26,-53.09 11.5,-10.62 28.76,-15.92 51.75,-15.92l1114.7 0c47.77,0 71.65,22.99 71.65,69.01l0 286.63c0,24.77 -5.75,42.46 -17.25,53.08 -11.51,10.61 -29.64,15.92 -54.4,15.92l-682.09 0c-15.93,0 -26.54,3.1 -31.85,9.29 -5.31,6.19 -7.96,16.37 -7.96,30.52l0 207.01c0,15.92 2.65,26.55 7.96,31.86 5.31,5.31 15.92,7.96 31.85,7.96l594.5 0c24.77,0 42.46,5.74 53.08,17.24 10.61,11.51 15.92,29.64 15.92,54.41l0 283.98c0,23.01 -5.31,40.25 -15.92,51.76 -10.62,11.5 -28.31,17.25 -53.08,17.25l-594.5 0c-15.93,0 -26.54,3.1 -31.85,9.29 -5.31,6.19 -7.96,16.36 -7.96,30.52l0 217.63c0,14.16 2.65,24.33 7.96,30.51 5.31,6.2 15.92,9.3 31.85,9.3l684.73 0z"/>
 </g>
</svg>
